# xmcd
#
# Track frame offsets:
#	150
#	12598
#	24942
#	36561
#	48339
#	60756
#	74515
#	86791
#	98646
#	111897
#	121281
#	134732
#	147074
#	159514
#	171441
#	183864
#	196367
#	209125
#	222349
#	233539
#
# Disc length: 3275 seconds
#
# Revision: 1
# Processed by: cddbd v1.5.2PL0 Copyright (c) Steve Scherf et al.
# Submitted via: EasyCDDAExtractor 10.0.3.1
#
DISCID=240cc914
DTITLE=Hank Williams - Long Gone Daddy [Disc 1]
DYEAR=2002
DGENRE=Country
TTITLE0=Love Sick Blues
TTITLE1=Half As Much
TTITLE2=My Bucket's Got A Hole In It
TTITLE3=Dear John
TTITLE4=Move It On Over
TTITLE5=Ramblin' Man
TTITLE6=Lost Highway
TTITLE7=Settin' The Woods On Fire
TTITLE8=Hey Good Lookin'
TTITLE9=Pan American
TTITLE10=You're Gonna Change
TTITLE11=Howlin' At The Moon
TTITLE12=Honky Tonkin'
TTITLE13=Why Should We Try Anymore
TTITLE14=Cold Cold Heart
TTITLE15=I Won't Be Home No More
TTITLE16=I Just Don't Like This Kind Of Living
TTITLE17=Wedding Bells
TTITLE18=Crazy Heart
TTITLE19=Blues Come Around
EXTD=
EXTT0=
EXTT1=
EXTT2=
EXTT3=
EXTT4=
EXTT5=
EXTT6=
EXTT7=
EXTT8=
EXTT9=
EXTT10=
EXTT11=
EXTT12=
EXTT13=
EXTT14=
EXTT15=
EXTT16=
EXTT17=
EXTT18=
EXTT19=
PLAYORDER=
